<mxfile host="app.diagrams.net" modified="2023-10-20T07:46:11.321Z" agent="Mozilla/5.0 (Windows NT 10.0; Win64; x64) AppleWebKit/537.36 (KHTML, like Gecko) Chrome/117.0.0.0 Safari/537.36 OPR/103.0.0.0" etag="VA4KmXQ1aRWHL9CgxdPh" version="22.0.5" type="device">
  <diagram name="Página-1" id="AGmM_iZ6ICkiVa7HvMKi">
    <mxGraphModel dx="569" dy="308" grid="1" gridSize="10" guides="1" tooltips="1" connect="1" arrows="1" fold="1" page="1" pageScale="1" pageWidth="827" pageHeight="1169" math="0" shadow="0">
      <root>
        <mxCell id="0" />
        <mxCell id="1" parent="0" />
        <mxCell id="JYQYfjQE8aFjbBEghy2n-2" value="Empleado" style="whiteSpace=wrap;html=1;align=center;" vertex="1" parent="1">
          <mxGeometry x="70" y="160" width="100" height="40" as="geometry" />
        </mxCell>
        <mxCell id="JYQYfjQE8aFjbBEghy2n-3" value="Departamento" style="whiteSpace=wrap;html=1;align=center;" vertex="1" parent="1">
          <mxGeometry x="350" y="160" width="100" height="40" as="geometry" />
        </mxCell>
        <mxCell id="JYQYfjQE8aFjbBEghy2n-4" value="Compañia" style="whiteSpace=wrap;html=1;align=center;" vertex="1" parent="1">
          <mxGeometry x="210" y="240" width="100" height="40" as="geometry" />
        </mxCell>
        <mxCell id="JYQYfjQE8aFjbBEghy2n-5" value="Trabaja en" style="shape=rhombus;perimeter=rhombusPerimeter;whiteSpace=wrap;html=1;align=center;" vertex="1" parent="1">
          <mxGeometry x="200" y="150" width="120" height="60" as="geometry" />
        </mxCell>
        <mxCell id="JYQYfjQE8aFjbBEghy2n-6" value="Pertenece" style="shape=rhombus;perimeter=rhombusPerimeter;whiteSpace=wrap;html=1;align=center;" vertex="1" parent="1">
          <mxGeometry x="340" y="230" width="120" height="60" as="geometry" />
        </mxCell>
        <mxCell id="JYQYfjQE8aFjbBEghy2n-8" value="" style="line;strokeWidth=1;rotatable=0;dashed=0;labelPosition=right;align=left;verticalAlign=middle;spacingTop=0;spacingLeft=6;points=[];portConstraint=eastwest;" vertex="1" parent="1">
          <mxGeometry x="320" y="175" width="30" height="10" as="geometry" />
        </mxCell>
        <mxCell id="JYQYfjQE8aFjbBEghy2n-9" value="" style="line;strokeWidth=1;rotatable=0;dashed=0;labelPosition=right;align=left;verticalAlign=middle;spacingTop=0;spacingLeft=6;points=[];portConstraint=eastwest;" vertex="1" parent="1">
          <mxGeometry x="170" y="175" width="30" height="10" as="geometry" />
        </mxCell>
        <mxCell id="JYQYfjQE8aFjbBEghy2n-10" value="" style="line;strokeWidth=1;rotatable=0;dashed=0;labelPosition=right;align=left;verticalAlign=middle;spacingTop=0;spacingLeft=6;points=[];portConstraint=eastwest;" vertex="1" parent="1">
          <mxGeometry x="310" y="255" width="30" height="10" as="geometry" />
        </mxCell>
        <mxCell id="JYQYfjQE8aFjbBEghy2n-20" value="" style="line;strokeWidth=2;direction=south;html=1;" vertex="1" parent="1">
          <mxGeometry x="395" y="200" width="10" height="30" as="geometry" />
        </mxCell>
        <mxCell id="JYQYfjQE8aFjbBEghy2n-21" value="(0,n)" style="shape=partialRectangle;fillColor=none;align=left;verticalAlign=middle;strokeColor=none;spacingLeft=34;rotatable=0;points=[[0,0.5],[1,0.5]];portConstraint=eastwest;dropTarget=0;" vertex="1" parent="1">
          <mxGeometry x="370" y="200" width="90" height="30" as="geometry" />
        </mxCell>
        <mxCell id="JYQYfjQE8aFjbBEghy2n-22" value="" style="shape=partialRectangle;top=0;left=0;bottom=0;fillColor=none;stokeWidth=1;dashed=1;align=left;verticalAlign=middle;spacingLeft=4;spacingRight=4;overflow=hidden;rotatable=0;points=[];portConstraint=eastwest;part=1;" vertex="1" connectable="0" parent="JYQYfjQE8aFjbBEghy2n-21">
          <mxGeometry width="30" height="30" as="geometry" />
        </mxCell>
        <mxCell id="JYQYfjQE8aFjbBEghy2n-23" value="&amp;nbsp;1:N" style="text;strokeColor=none;fillColor=none;spacingLeft=4;spacingRight=4;overflow=hidden;rotatable=0;points=[[0,0.5],[1,0.5]];portConstraint=eastwest;fontSize=12;whiteSpace=wrap;html=1;" vertex="1" parent="1">
          <mxGeometry x="380" y="290" width="40" height="30" as="geometry" />
        </mxCell>
        <mxCell id="JYQYfjQE8aFjbBEghy2n-24" value="(1,1)" style="text;strokeColor=none;fillColor=none;spacingLeft=4;spacingRight=4;overflow=hidden;rotatable=0;points=[[0,0.5],[1,0.5]];portConstraint=eastwest;fontSize=12;whiteSpace=wrap;html=1;" vertex="1" parent="1">
          <mxGeometry x="310" y="235" width="40" height="30" as="geometry" />
        </mxCell>
        <mxCell id="JYQYfjQE8aFjbBEghy2n-25" value="(1,1)" style="text;strokeColor=none;fillColor=none;spacingLeft=4;spacingRight=4;overflow=hidden;rotatable=0;points=[[0,0.5],[1,0.5]];portConstraint=eastwest;fontSize=12;whiteSpace=wrap;html=1;" vertex="1" parent="1">
          <mxGeometry x="315" y="155" width="40" height="30" as="geometry" />
        </mxCell>
        <mxCell id="JYQYfjQE8aFjbBEghy2n-26" value="(1,n)" style="text;strokeColor=none;fillColor=none;spacingLeft=4;spacingRight=4;overflow=hidden;rotatable=0;points=[[0,0.5],[1,0.5]];portConstraint=eastwest;fontSize=12;whiteSpace=wrap;html=1;" vertex="1" parent="1">
          <mxGeometry x="170" y="155" width="40" height="30" as="geometry" />
        </mxCell>
        <mxCell id="JYQYfjQE8aFjbBEghy2n-27" value="1:N" style="text;strokeColor=none;fillColor=none;spacingLeft=4;spacingRight=4;overflow=hidden;rotatable=0;points=[[0,0.5],[1,0.5]];portConstraint=eastwest;fontSize=12;whiteSpace=wrap;html=1;" vertex="1" parent="1">
          <mxGeometry x="240" y="120" width="40" height="30" as="geometry" />
        </mxCell>
      </root>
    </mxGraphModel>
  </diagram>
</mxfile>
